<svg xmlns="http://www.w3.org/2000/svg" width="175.66" height="35" viewBox="0 0 175.66 35"><rect class="svg__rect" x="0" y="0" width="175.66" height="35" fill="#E46C17"/><rect class="svg__rect" x="175.66" y="0" width="0" height="35" fill="#389AD5"/><path class="svg__text" d="M13.78 19.42L13.78 19.42L15.27 19.42Q15.27 20.15 15.75 20.55Q16.23 20.95 17.12 20.95L17.12 20.95Q17.90 20.95 18.29 20.63Q18.68 20.32 18.68 19.80L18.68 19.80Q18.68 19.24 18.28 18.94Q17.89 18.63 16.85 18.32Q15.82 18.01 15.21 17.63L15.21 17.63Q14.05 16.90 14.05 15.72L14.05 15.72Q14.05 14.69 14.89 14.02Q15.73 13.35 17.07 13.35L17.07 13.35Q17.96 13.35 18.66 13.68Q19.36 14.01 19.75 14.61Q20.15 15.22 20.15 15.96L20.15 15.96L18.68 15.96Q18.68 15.29 18.26 14.91Q17.84 14.54 17.06 14.54L17.06 14.54Q16.33 14.54 15.93 14.85Q15.53 15.16 15.53 15.71L15.53 15.71Q15.53 16.18 15.96 16.50Q16.40 16.81 17.39 17.10Q18.39 17.40 18.99 17.78Q19.60 18.16 19.88 18.65Q20.16 19.13 20.16 19.79L20.16 19.79Q20.16 20.86 19.34 21.49Q18.52 22.12 17.12 22.12L17.12 22.12Q16.20 22.12 15.42 21.77Q14.64 21.43 14.21 20.83Q13.78 20.22 13.78 19.42ZM26.13 14.66L23.49 14.66L23.49 13.47L30.26 13.47L30.26 14.66L27.60 14.66L27.60 22L26.13 22L26.13 14.66ZM35.58 22L34.10 22L34.10 13.47L35.58 13.47L35.58 22ZM45.75 22L40.39 22L40.39 13.47L41.87 13.47L41.87 20.82L45.75 20.82L45.75 22ZM55.23 22L49.87 22L49.87 13.47L51.35 13.47L51.35 20.82L55.23 20.82L55.23 22ZM66.71 22L64.74 13.47L66.21 13.47L67.54 19.88L69.17 13.47L70.41 13.47L72.02 19.89L73.33 13.47L74.80 13.47L72.83 22L71.42 22L69.79 15.77L68.14 22L66.71 22ZM78.61 18.00L78.61 18.00L78.61 17.52Q78.61 16.28 79.05 15.32Q79.49 14.37 80.30 13.86Q81.10 13.35 82.14 13.35Q83.19 13.35 83.99 13.85Q84.80 14.35 85.24 15.29Q85.68 16.23 85.68 17.48L85.68 17.48L85.68 17.96Q85.68 19.21 85.25 20.16Q84.82 21.10 84.01 21.61Q83.21 22.12 82.16 22.12L82.16 22.12Q81.12 22.12 80.31 21.61Q79.50 21.10 79.05 20.17Q78.61 19.23 78.61 18.00ZM80.09 17.46L80.09 17.96Q80.09 19.36 80.64 20.13Q81.18 20.90 82.16 20.90L82.16 20.90Q83.14 20.90 83.67 20.15Q84.20 19.40 84.20 17.96L84.20 17.96L84.20 17.51Q84.20 16.09 83.67 15.34Q83.13 14.58 82.14 14.58L82.14 14.58Q81.18 14.58 80.64 15.33Q80.10 16.09 80.09 17.46L80.09 17.46ZM91.63 22L90.15 22L90.15 13.47L93.15 13.47Q94.63 13.47 95.43 14.13Q96.23 14.79 96.23 16.05L96.23 16.05Q96.23 16.90 95.82 17.48Q95.40 18.06 94.67 18.37L94.67 18.37L96.58 21.92L96.58 22L94.99 22L93.28 18.71L91.63 18.71L91.63 22ZM91.63 14.66L91.63 17.52L93.15 17.52Q93.90 17.52 94.33 17.15Q94.75 16.77 94.75 16.11L94.75 16.11Q94.75 15.43 94.36 15.05Q93.97 14.68 93.20 14.66L93.20 14.66L91.63 14.66ZM102.11 22L100.63 22L100.63 13.47L102.11 13.47L102.11 17.47L102.93 16.46L105.42 13.47L107.22 13.47L104.05 17.25L107.40 22L105.64 22L103.07 18.31L102.11 19.34L102.11 22ZM116.89 18.00L116.89 18.00L116.89 17.52Q116.89 16.28 117.33 15.32Q117.77 14.37 118.58 13.86Q119.38 13.35 120.42 13.35Q121.47 13.35 122.27 13.85Q123.08 14.35 123.52 15.29Q123.96 16.23 123.96 17.48L123.96 17.48L123.96 17.96Q123.96 19.21 123.53 20.16Q123.10 21.10 122.29 21.61Q121.48 22.12 120.44 22.12L120.44 22.12Q119.40 22.12 118.59 21.61Q117.78 21.10 117.33 20.17Q116.89 19.23 116.89 18.00ZM118.37 17.46L118.37 17.96Q118.37 19.36 118.92 20.13Q119.46 20.90 120.44 20.90L120.44 20.90Q121.42 20.90 121.95 20.15Q122.48 19.40 122.48 17.96L122.48 17.96L122.48 17.51Q122.48 16.09 121.94 15.34Q121.41 14.58 120.42 14.58L120.42 14.58Q119.46 14.58 118.92 15.33Q118.38 16.09 118.37 17.46L118.37 17.46ZM129.91 22L128.43 22L128.43 13.47L129.91 13.47L133.72 19.54L133.72 13.47L135.20 13.47L135.20 22L133.71 22L129.91 15.95L129.91 22ZM147.48 22L146.00 22L146.00 13.47L147.48 13.47L147.48 22ZM153.97 14.66L151.33 14.66L151.33 13.47L158.10 13.47L158.10 14.66L155.44 14.66L155.44 22L153.97 22L153.97 14.66ZM161.83 21.33L161.83 21.33Q161.83 20.99 162.04 20.77Q162.26 20.55 162.64 20.55Q163.01 20.55 163.23 20.77Q163.44 20.99 163.44 21.33L163.44 21.33Q163.44 21.65 163.23 21.87Q163.02 22.08 162.64 22.08Q162.25 22.08 162.04 21.87Q161.83 21.65 161.83 21.33ZM162.00 19.49L161.87 13.47L163.37 13.47L163.23 19.49L162.00 19.49Z" fill="#FFFFFF"/><path class="svg__text" d="" fill="#FFFFFF" x="188.66"/></svg>